<svg width="9" height="14" viewBox="0 0 9 14" fill="none" xmlns="http://www.w3.org/2000/svg">
<path d="M8.22021 7.77979L2.77762 13.2224C2.57138 13.4286 2.29166 13.5445 2 13.5445C1.70834 13.5445 1.42862 13.4286 1.22238 13.2224C1.01615 13.0161 0.900283 12.7364 0.900283 12.4448C0.900283 12.1531 1.01615 11.8734 1.22238 11.6671L5.88953 7L1.22238 2.33285C1.12026 2.23073 1.03926 2.1095 0.983993 1.97608C0.928727 1.84265 0.900282 1.69965 0.900282 1.55524C0.900282 1.41082 0.928727 1.26782 0.983992 1.13439C1.03926 1.00097 1.12026 0.879738 1.22238 0.777619C1.3245 0.675501 1.44573 0.594496 1.57915 0.539231C1.71258 0.483965 1.85558 0.455519 2 0.45552C2.14441 0.455519 2.28742 0.483965 2.42084 0.53923C2.55426 0.594497 2.6755 0.675501 2.77762 0.777619L8.22021 6.22021C8.42368 6.42279 8.53986 6.69692 8.54391 6.98401C8.54797 7.2711 8.43958 7.5484 8.24191 7.75664L8.22021 7.77979Z" fill="#1A1A1A"/>
</svg>
