<svg width="26" height="28" viewBox="0 0 26 28" fill="none" xmlns="http://www.w3.org/2000/svg">
<path d="M8.1597 4.08454C9.49441 2.74983 11.3047 2 13.1922 2C15.0798 2 16.89 2.74983 18.2248 4.08454C19.5595 5.41925 20.3093 7.22951 20.3093 9.11708C20.3093 11.2059 20.7833 12.7214 21.4138 13.8088C21.6816 14.2706 22.2008 14.4885 22.7134 14.6371C24.8682 15.2615 24.7353 17.924 23.4664 18.8623C23.4664 18.8623 21.71 20.3829 13.1922 20.3829C4.67446 20.3829 2.91801 18.8623 2.91801 18.8623C1.64912 17.924 1.51624 15.2615 3.67104 14.6371C4.1837 14.4885 4.70287 14.2706 4.97062 13.8088C5.6012 12.7214 6.07516 11.2059 6.07516 9.11708C6.07516 7.22951 6.82499 5.41925 8.1597 4.08454Z" stroke="currentColor" stroke-width="3" stroke-linecap="round" stroke-linejoin="round"/>
<path d="M10 24.3823C10.5165 25.3453 11.5326 26.0001 12.7018 26.0001C13.8709 26.0001 14.8871 25.3453 15.4036 24.3823" stroke="currentColor" stroke-width="3" stroke-linecap="round" stroke-linejoin="round"/>
</svg>
