<svg width="14" height="14" viewBox="0 0 14 14" fill="none" xmlns="http://www.w3.org/2000/svg">
<path d="M3.11399 8.98375L2.42825 13.1713C2.40643 13.3023 2.42032 13.4372 2.4683 13.5602C2.51629 13.6832 2.5964 13.7892 2.69929 13.866C2.80208 13.9434 2.92318 13.9892 3.04914 13.9983C3.1751 14.0074 3.30098 13.9795 3.4128 13.9176L7.00144 11.9426L10.5901 13.9176C10.6874 13.9717 10.7961 13.9992 10.9061 13.9975C11.0493 13.9992 11.1893 13.9524 11.3055 13.864C11.4084 13.7872 11.4885 13.6812 11.5365 13.5582C11.5845 13.4352 11.5984 13.3003 11.5765 13.1693L10.8898 8.98172L13.7956 6.02081C13.8859 5.9286 13.9499 5.81145 13.9802 5.68272C14.0105 5.55399 14.0059 5.41885 13.967 5.29272C13.927 5.16697 13.8549 5.05535 13.7585 4.97022C13.6622 4.88509 13.5454 4.82976 13.4211 4.81036L9.39865 4.20361L7.60672 0.392248C7.55008 0.27425 7.46357 0.175133 7.35681 0.105893C7.25005 0.0366535 7.12721 0 7.00191 0C6.87662 0 6.75378 0.0366535 6.64702 0.105893C6.54026 0.175133 6.45375 0.27425 6.39711 0.392248L4.60135 4.20159L0.578867 4.80834C0.454586 4.82774 0.337811 4.88307 0.241464 4.9682C0.145117 5.05333 0.0729536 5.16495 0.0329577 5.2907C-0.00594878 5.41683 -0.0105063 5.55196 0.0198049 5.6807C0.050116 5.80943 0.114076 5.92658 0.204392 6.01879L3.11399 8.98375Z" fill="currentColor"/>
</svg>
