<svg width="34" height="28" viewBox="0 0 34 28" fill="none" xmlns="http://www.w3.org/2000/svg">
<path d="M13.726 7.23853H6.69038C5.44642 7.23853 4.2534 7.73269 3.37378 8.61231C2.49416 9.49192 2 10.6849 2 11.9289V20.3097C2 20.862 2.44772 21.3097 3 21.3097H13.9005" fill="none"/>
<path d="M13.726 7.23853H6.69038C5.44642 7.23853 4.2534 7.73269 3.37378 8.61231C2.49416 9.49192 2 10.6849 2 11.9289V20.3097C2 20.862 2.44772 21.3097 3 21.3097H13.9005L13.726 7.23853Z" stroke="currentColor" stroke-width="3" stroke-linecap="round" stroke-linejoin="round"/>
<path d="M12.0581 20.2392C12.1104 20.7192 12.493 21.0976 12.9736 21.1444C15.8083 21.4199 18.7919 21.8534 21.8719 21.8534C24.9519 21.8534 27.9355 21.4199 30.7703 21.1444C31.2509 21.0976 31.6335 20.7192 31.6857 20.2392C31.974 17.5901 32.4026 14.8032 32.4026 11.9267C32.4026 9.05023 31.974 6.26329 31.6857 3.61415C31.6335 3.13415 31.2509 2.75575 30.7703 2.70904C27.9355 2.43351 24.9519 2 21.8719 2C18.7919 2 15.8083 2.43351 12.9736 2.70904C12.493 2.75575 12.1104 3.13415 12.0581 3.61415C11.7698 6.26329 11.3413 9.05023 11.3413 11.9267C11.3413 14.8032 11.7698 17.5901 12.0581 20.2392Z" fill="white" stroke="currentColor" stroke-width="3"/>
<path d="M11.3409 25.9999C13.631 25.9999 15.4875 24.1434 15.4875 21.8534C15.4875 19.5633 13.631 17.7068 11.3409 17.7068C9.05082 17.7068 7.19434 19.5633 7.19434 21.8534C7.19434 24.1434 9.05082 25.9999 11.3409 25.9999Z" fill="white" stroke="currentColor" stroke-width="3" stroke-linecap="round" stroke-linejoin="round"/>
<path d="M25.9952 25.9999C28.2853 25.9999 30.1418 24.1434 30.1418 21.8534C30.1418 19.5633 28.2853 17.7068 25.9952 17.7068C23.7051 17.7068 21.8486 19.5633 21.8486 21.8534C21.8486 24.1434 23.7051 25.9999 25.9952 25.9999Z" fill="white" stroke="currentColor" stroke-width="3" stroke-linecap="round" stroke-linejoin="round"/>
</svg>
