<svg width="28" height="28" viewBox="0 0 28 28" fill="none" xmlns="http://www.w3.org/2000/svg">
<path fill-rule="evenodd" clip-rule="evenodd" d="M4.21244 11.0671C3.13712 10.9486 2.27183 10.0929 2.15672 9.02907C2.07175 8.24371 2 7.43741 2 6.61538C2 5.79336 2.07175 4.98706 2.15672 4.2017C2.27183 3.13784 3.13712 2.28218 4.21244 2.16365C5.01115 2.07561 5.83123 2 6.66734 2C7.50345 2 8.32353 2.07561 9.12224 2.16365C10.1976 2.28218 11.0629 3.13784 11.178 4.2017C11.2629 4.98706 11.3347 5.79336 11.3347 6.61538C11.3347 7.43741 11.2629 8.24371 11.178 9.02907C11.0629 10.0929 10.1976 10.9486 9.12224 11.0671C8.32353 11.1552 7.50345 11.2308 6.66734 11.2308C5.83123 11.2308 5.01115 11.1552 4.21244 11.0671ZM18.878 11.0671C17.8026 10.9486 16.9374 10.0929 16.8223 9.02907C16.7373 8.24371 16.6655 7.43741 16.6655 6.61538C16.6655 5.79336 16.7373 4.98706 16.8223 4.2017C16.9374 3.13784 17.8026 2.28218 18.878 2.16365C19.6767 2.07561 20.4968 2 21.3329 2C22.169 2 22.9891 2.07561 23.7878 2.16365C24.8631 2.28218 25.7284 3.13784 25.8435 4.2017C25.9285 4.98706 26.0002 5.79336 26.0002 6.61538C26.0002 7.43741 25.9285 8.24371 25.8435 9.02907C25.7284 10.0929 24.8631 10.9486 23.7878 11.0671C22.9891 11.1552 22.169 11.2308 21.3329 11.2308C20.4968 11.2308 19.6767 11.1552 18.878 11.0671ZM2.15672 23.7981C2.27183 24.862 3.13712 25.7176 4.21244 25.8362C5.01115 25.9242 5.83123 25.9998 6.66734 25.9998C7.50345 25.9998 8.32353 25.9242 9.12224 25.8362C10.1976 25.7176 11.0629 24.862 11.178 23.7981C11.2629 23.0128 11.3347 22.2065 11.3347 21.3844C11.3347 20.5624 11.2629 19.7561 11.178 18.9707C11.0629 17.9069 10.1976 17.0512 9.12224 16.9327C8.32353 16.8447 7.50345 16.769 6.66734 16.769C5.83123 16.769 5.01115 16.8447 4.21244 16.9327C3.13712 17.0512 2.27183 17.9069 2.15672 18.9707C2.07175 19.7561 2 20.5624 2 21.3844C2 22.2065 2.07175 23.0128 2.15672 23.7981ZM18.878 25.8362C17.8026 25.7176 16.9374 24.862 16.8223 23.7981C16.7373 23.0128 16.6655 22.2065 16.6655 21.3844C16.6655 20.5624 16.7373 19.7561 16.8223 18.9707C16.9374 17.9069 17.8026 17.0512 18.878 16.9327C19.6767 16.8447 20.4968 16.769 21.3329 16.769C22.169 16.769 22.9891 16.8447 23.7878 16.9327C24.8631 17.0512 25.7284 17.9069 25.8435 18.9707C25.9285 19.7561 26.0002 20.5624 26.0002 21.3844C26.0002 22.2065 25.9285 23.0128 25.8435 23.7981C25.7284 24.862 24.8631 25.7176 23.7878 25.8362C22.9891 25.9242 22.169 25.9998 21.3329 25.9998C20.4968 25.9998 19.6767 25.9242 18.878 25.8362Z" fill="currentColor"/>
<path d="M2.15672 9.02907L3.64802 8.86772L2.15672 9.02907ZM4.21244 11.0671L4.37678 9.57615H4.37678L4.21244 11.0671ZM2.15672 4.2017L0.665426 4.04035L2.15672 4.2017ZM4.21244 2.16365L4.37678 3.65462L4.21244 2.16365ZM9.12224 2.16365L9.28658 0.672679H9.28658L9.12224 2.16365ZM11.178 4.2017L9.68666 4.36305L9.68666 4.36305L11.178 4.2017ZM11.178 9.02907L9.68666 8.86772L9.68666 8.86772L11.178 9.02907ZM9.12224 11.0671L9.28658 12.5581H9.28658L9.12224 11.0671ZM16.8223 9.02907L15.331 9.19042V9.19042L16.8223 9.02907ZM18.878 11.0671L19.0423 9.57615H19.0423L18.878 11.0671ZM16.8223 4.2017L18.3135 4.36305V4.36305L16.8223 4.2017ZM18.878 2.16365L18.7136 0.672679L18.878 2.16365ZM23.7878 2.16365L23.9521 0.672679L23.7878 2.16365ZM25.8435 4.2017L27.3348 4.04035V4.04035L25.8435 4.2017ZM25.8435 9.02907L27.3348 9.19042V9.19042L25.8435 9.02907ZM23.7878 11.0671L23.9521 12.5581H23.9521L23.7878 11.0671ZM4.21244 25.8362L4.37678 24.3452H4.37677L4.21244 25.8362ZM2.15672 23.7981L3.64802 23.6368V23.6368L2.15672 23.7981ZM9.12224 25.8362L9.28658 27.3271H9.28658L9.12224 25.8362ZM11.178 23.7981L9.68666 23.6368L9.68666 23.6368L11.178 23.7981ZM11.178 18.9707L9.68666 19.1321L9.68666 19.1321L11.178 18.9707ZM9.12224 16.9327L9.28658 15.4417H9.28658L9.12224 16.9327ZM4.21244 16.9327L4.0481 15.4417H4.0481L4.21244 16.9327ZM2.15672 18.9707L3.64802 19.1321V19.1321L2.15672 18.9707ZM16.8223 23.7981L15.331 23.9595L16.8223 23.7981ZM18.878 25.8362L19.0423 24.3452H19.0423L18.878 25.8362ZM16.8223 18.9707L18.3135 19.1321V19.1321L16.8223 18.9707ZM18.878 16.9327L18.7136 15.4417H18.7136L18.878 16.9327ZM23.7878 16.9327L23.9521 15.4417H23.9521L23.7878 16.9327ZM25.8435 18.9707L27.3348 18.8094L25.8435 18.9707ZM25.8435 23.7981L27.3348 23.9595L25.8435 23.7981ZM23.7878 25.8362L23.9521 27.3271H23.9521L23.7878 25.8362ZM0.665426 9.19042C0.857785 10.9683 2.28791 12.3641 4.0481 12.5581L4.37678 9.57615C3.98632 9.53311 3.68587 9.21752 3.64802 8.86772L0.665426 9.19042ZM0.5 6.61538C0.5 7.51992 0.578883 8.39052 0.665426 9.19042L3.64802 8.86772C3.56462 8.09689 3.5 7.35489 3.5 6.61538H0.5ZM0.665426 4.04035C0.578883 4.84025 0.5 5.71085 0.5 6.61538H3.5C3.5 5.87588 3.56462 5.13388 3.64802 4.36305L0.665426 4.04035ZM4.0481 0.672679C2.28791 0.866693 0.857785 2.26242 0.665426 4.04035L3.64802 4.36305C3.68587 4.01325 3.98632 3.69766 4.37678 3.65462L4.0481 0.672679ZM6.66734 0.5C5.74612 0.5 4.85958 0.583235 4.0481 0.672679L4.37678 3.65462C5.16272 3.56799 5.91633 3.5 6.66734 3.5V0.5ZM9.28658 0.672679C8.4751 0.583235 7.58856 0.5 6.66734 0.5V3.5C7.41835 3.5 8.17196 3.56799 8.9579 3.65462L9.28658 0.672679ZM12.6693 4.04035C12.4769 2.26242 11.0468 0.866693 9.28658 0.672679L8.9579 3.65462C9.34836 3.69766 9.64881 4.01325 9.68666 4.36305L12.6693 4.04035ZM12.8347 6.61538C12.8347 5.71085 12.7558 4.84025 12.6693 4.04035L9.68666 4.36305C9.77006 5.13388 9.83468 5.87588 9.83468 6.61538H12.8347ZM12.6693 9.19042C12.7558 8.39052 12.8347 7.51992 12.8347 6.61538H9.83468C9.83468 7.35489 9.77006 8.09689 9.68666 8.86772L12.6693 9.19042ZM9.28658 12.5581C11.0468 12.3641 12.4769 10.9683 12.6693 9.19042L9.68666 8.86772C9.64881 9.21752 9.34836 9.53311 8.9579 9.57615L9.28658 12.5581ZM6.66734 12.7308C7.58856 12.7308 8.4751 12.6475 9.28658 12.5581L8.9579 9.57615C8.17196 9.66278 7.41835 9.73077 6.66734 9.73077V12.7308ZM4.04809 12.5581C4.85958 12.6475 5.74612 12.7308 6.66734 12.7308V9.73077C5.91633 9.73077 5.16272 9.66278 4.37678 9.57615L4.04809 12.5581ZM15.331 9.19042C15.5233 10.9683 16.9534 12.3641 18.7136 12.5581L19.0423 9.57615C18.6518 9.53311 18.3514 9.21752 18.3135 8.86772L15.331 9.19042ZM15.1655 6.61538C15.1655 7.51992 15.2444 8.39052 15.331 9.19042L18.3135 8.86772C18.2302 8.09689 18.1655 7.35489 18.1655 6.61538H15.1655ZM15.331 4.04035C15.2444 4.84025 15.1655 5.71085 15.1655 6.61538H18.1655C18.1655 5.87588 18.2302 5.13388 18.3135 4.36305L15.331 4.04035ZM18.7136 0.672679C16.9534 0.866693 15.5233 2.26242 15.331 4.04035L18.3135 4.36305C18.3514 4.01325 18.6518 3.69766 19.0423 3.65462L18.7136 0.672679ZM21.3329 0.5C20.4117 0.5 19.5251 0.583235 18.7136 0.672679L19.0423 3.65462C19.8282 3.56799 20.5819 3.5 21.3329 3.5V0.5ZM23.9521 0.672679C23.1406 0.583235 22.2541 0.5 21.3329 0.5V3.5C22.0839 3.5 22.8375 3.56799 23.6234 3.65462L23.9521 0.672679ZM27.3348 4.04035C27.1424 2.26242 25.7123 0.866693 23.9521 0.672679L23.6234 3.65462C24.0139 3.69766 24.3143 4.01325 24.3522 4.36305L27.3348 4.04035ZM27.5002 6.61538C27.5002 5.71085 27.4213 4.84025 27.3348 4.04035L24.3522 4.36305C24.4356 5.13388 24.5002 5.87588 24.5002 6.61538H27.5002ZM27.3348 9.19042C27.4213 8.39052 27.5002 7.51992 27.5002 6.61538H24.5002C24.5002 7.35489 24.4356 8.09689 24.3522 8.86772L27.3348 9.19042ZM23.9521 12.5581C25.7123 12.3641 27.1424 10.9683 27.3348 9.19042L24.3522 8.86772C24.3143 9.21752 24.0139 9.53311 23.6234 9.57615L23.9521 12.5581ZM21.3329 12.7308C22.2541 12.7308 23.1406 12.6475 23.9521 12.5581L23.6234 9.57615C22.8375 9.66278 22.0839 9.73077 21.3329 9.73077V12.7308ZM18.7136 12.5581C19.5251 12.6475 20.4117 12.7308 21.3329 12.7308V9.73077C20.5819 9.73077 19.8282 9.66278 19.0423 9.57615L18.7136 12.5581ZM4.37677 24.3452C3.98632 24.3022 3.68587 23.9866 3.64802 23.6368L0.665426 23.9595C0.857785 25.7374 2.28791 27.1331 4.0481 27.3271L4.37677 24.3452ZM6.66734 24.4998C5.91633 24.4998 5.16272 24.4318 4.37678 24.3452L4.04809 27.3271C4.85958 27.4166 5.74612 27.4998 6.66734 27.4998V24.4998ZM8.95791 24.3452C8.17196 24.4318 7.41835 24.4998 6.66734 24.4998V27.4998C7.58856 27.4998 8.4751 27.4166 9.28658 27.3271L8.95791 24.3452ZM9.68666 23.6368C9.64881 23.9866 9.34836 24.3022 8.9579 24.3452L9.28658 27.3271C11.0468 27.1331 12.4769 25.7374 12.6693 23.9595L9.68666 23.6368ZM9.83468 21.3844C9.83468 22.1239 9.77006 22.8659 9.68666 23.6368L12.6693 23.9595C12.7558 23.1596 12.8347 22.289 12.8347 21.3844H9.83468ZM9.68666 19.1321C9.77006 19.9029 9.83468 20.6449 9.83468 21.3844H12.8347C12.8347 20.4799 12.7558 19.6093 12.6693 18.8094L9.68666 19.1321ZM8.9579 18.4237C9.34836 18.4667 9.64881 18.7823 9.68666 19.1321L12.6693 18.8094C12.4769 17.0315 11.0468 15.6357 9.28658 15.4417L8.9579 18.4237ZM6.66734 18.269C7.41835 18.269 8.17196 18.337 8.9579 18.4237L9.28658 15.4417C8.4751 15.3523 7.58856 15.269 6.66734 15.269V18.269ZM4.37677 18.4237C5.16272 18.337 5.91633 18.269 6.66734 18.269V15.269C5.74612 15.269 4.85958 15.3523 4.0481 15.4417L4.37677 18.4237ZM3.64802 19.1321C3.68587 18.7823 3.98632 18.4667 4.37678 18.4237L4.0481 15.4417C2.28791 15.6357 0.857785 17.0315 0.665426 18.8094L3.64802 19.1321ZM3.5 21.3844C3.5 20.6449 3.56462 19.9029 3.64802 19.1321L0.665426 18.8094C0.578883 19.6093 0.5 20.4799 0.5 21.3844H3.5ZM3.64802 23.6368C3.56462 22.8659 3.5 22.1239 3.5 21.3844H0.5C0.5 22.289 0.578883 23.1596 0.665426 23.9595L3.64802 23.6368ZM15.331 23.9595C15.5233 25.7374 16.9534 27.1331 18.7136 27.3271L19.0423 24.3452C18.6518 24.3022 18.3514 23.9866 18.3135 23.6368L15.331 23.9595ZM15.1655 21.3844C15.1655 22.289 15.2444 23.1596 15.331 23.9595L18.3135 23.6368C18.2302 22.8659 18.1655 22.1239 18.1655 21.3844H15.1655ZM15.331 18.8094C15.2444 19.6093 15.1655 20.4799 15.1655 21.3844H18.1655C18.1655 20.6449 18.2302 19.9029 18.3135 19.1321L15.331 18.8094ZM18.7136 15.4417C16.9534 15.6357 15.5233 17.0315 15.331 18.8094L18.3135 19.1321C18.3514 18.7823 18.6518 18.4667 19.0423 18.4237L18.7136 15.4417ZM21.3329 15.269C20.4117 15.269 19.5251 15.3523 18.7136 15.4417L19.0423 18.4237C19.8282 18.337 20.5819 18.269 21.3329 18.269V15.269ZM23.9521 15.4417C23.1406 15.3523 22.2541 15.269 21.3329 15.269V18.269C22.0839 18.269 22.8375 18.337 23.6234 18.4237L23.9521 15.4417ZM27.3348 18.8094C27.1424 17.0315 25.7123 15.6357 23.9521 15.4417L23.6234 18.4237C24.0139 18.4667 24.3143 18.7823 24.3522 19.1321L27.3348 18.8094ZM27.5002 21.3844C27.5002 20.4799 27.4213 19.6093 27.3348 18.8094L24.3522 19.1321C24.4356 19.9029 24.5002 20.6449 24.5002 21.3844H27.5002ZM27.3348 23.9595C27.4213 23.1596 27.5002 22.289 27.5002 21.3844H24.5002C24.5002 22.1239 24.4356 22.8659 24.3522 23.6368L27.3348 23.9595ZM23.9521 27.3271C25.7123 27.1331 27.1424 25.7374 27.3348 23.9595L24.3522 23.6368C24.3143 23.9866 24.0139 24.3022 23.6234 24.3452L23.9521 27.3271ZM21.3329 27.4998C22.2541 27.4998 23.1406 27.4166 23.9521 27.3271L23.6234 24.3452C22.8375 24.4318 22.0839 24.4998 21.3329 24.4998V27.4998ZM18.7136 27.3271C19.5251 27.4166 20.4117 27.4998 21.3329 27.4998V24.4998C20.5819 24.4998 19.8282 24.4318 19.0423 24.3452L18.7136 27.3271Z" fill="currentColor"/>
</svg>
