<svg width="49" height="16" viewBox="0 0 49 16" fill="none" xmlns="http://www.w3.org/2000/svg">
<rect x="3" width="46" height="16" rx="4" fill="#5093FE"/>
<path d="M16.06 13.12C15.56 13.12 15.1167 13.0133 14.73 12.8C14.3433 12.5867 14.04 12.2867 13.82 11.9C13.6 11.5133 13.49 11.0667 13.49 10.56C13.49 10.0467 13.5967 9.59 13.81 9.19C14.03 8.79 14.33 8.48 14.71 8.26C15.0967 8.03333 15.55 7.92 16.07 7.92C16.5567 7.92 16.9867 8.02667 17.36 8.24C17.7333 8.45333 18.0233 8.74667 18.23 9.12C18.4433 9.48667 18.55 9.89667 18.55 10.35C18.55 10.4233 18.5467 10.5 18.54 10.58C18.54 10.66 18.5367 10.7433 18.53 10.83H14.76C14.7867 11.2167 14.92 11.52 15.16 11.74C15.4067 11.96 15.7033 12.07 16.05 12.07C16.31 12.07 16.5267 12.0133 16.7 11.9C16.88 11.78 17.0133 11.6267 17.1 11.44H18.4C18.3067 11.7533 18.15 12.04 17.93 12.3C17.7167 12.5533 17.45 12.7533 17.13 12.9C16.8167 13.0467 16.46 13.12 16.06 13.12ZM16.07 8.96C15.7567 8.96 15.48 9.05 15.24 9.23C15 9.40333 14.8467 9.67 14.78 10.03H17.25C17.23 9.70333 17.11 9.44333 16.89 9.25C16.67 9.05667 16.3967 8.96 16.07 8.96ZM19.6266 13V8.04H20.7666L20.8866 8.97C21.0666 8.65 21.3099 8.39667 21.6166 8.21C21.9299 8.01667 22.2966 7.92 22.7166 7.92V9.27H22.3566C22.0766 9.27 21.8266 9.31333 21.6066 9.4C21.3866 9.48667 21.2132 9.63667 21.0866 9.85C20.9666 10.0633 20.9066 10.36 20.9066 10.74V13H19.6266ZM24.2814 7.27C24.0481 7.27 23.8547 7.2 23.7014 7.06C23.5547 6.92 23.4814 6.74333 23.4814 6.53C23.4814 6.31667 23.5547 6.14333 23.7014 6.01C23.8547 5.87 24.0481 5.8 24.2814 5.8C24.5147 5.8 24.7047 5.87 24.8514 6.01C25.0047 6.14333 25.0814 6.31667 25.0814 6.53C25.0814 6.74333 25.0047 6.92 24.8514 7.06C24.7047 7.2 24.5147 7.27 24.2814 7.27ZM23.6414 13V8.04H24.9214V13H23.6414ZM26.4874 13V9.11H25.8074V8.04H26.4874V7.46C26.4874 6.86 26.6374 6.43333 26.9374 6.18C27.2441 5.92667 27.6574 5.8 28.1774 5.8H28.7274V6.89H28.3774C28.1574 6.89 28.0008 6.93333 27.9074 7.02C27.8141 7.10667 27.7674 7.25333 27.7674 7.46V8.04H30.9674V13H29.6874V9.11H27.7674V13H26.4874ZM30.3374 7.33C30.1041 7.33 29.9108 7.26 29.7574 7.12C29.6108 6.98 29.5374 6.80333 29.5374 6.59C29.5374 6.37667 29.6108 6.20333 29.7574 6.07C29.9108 5.93 30.1041 5.86 30.3374 5.86C30.5708 5.86 30.7608 5.93 30.9074 6.07C31.0608 6.20333 31.1374 6.37667 31.1374 6.59C31.1374 6.80333 31.0608 6.98 30.9074 7.12C30.7608 7.26 30.5708 7.33 30.3374 7.33ZM34.7319 13.12C34.2319 13.12 33.7885 13.0133 33.4019 12.8C33.0152 12.5867 32.7119 12.2867 32.4919 11.9C32.2719 11.5133 32.1619 11.0667 32.1619 10.56C32.1619 10.0467 32.2685 9.59 32.4819 9.19C32.7019 8.79 33.0019 8.48 33.3819 8.26C33.7685 8.03333 34.2219 7.92 34.7419 7.92C35.2285 7.92 35.6585 8.02667 36.0319 8.24C36.4052 8.45333 36.6952 8.74667 36.9019 9.12C37.1152 9.48667 37.2219 9.89667 37.2219 10.35C37.2219 10.4233 37.2185 10.5 37.2119 10.58C37.2119 10.66 37.2085 10.7433 37.2019 10.83H33.4319C33.4585 11.2167 33.5919 11.52 33.8319 11.74C34.0785 11.96 34.3752 12.07 34.7219 12.07C34.9819 12.07 35.1985 12.0133 35.3719 11.9C35.5519 11.78 35.6852 11.6267 35.7719 11.44H37.0719C36.9785 11.7533 36.8219 12.04 36.6019 12.3C36.3885 12.5533 36.1219 12.7533 35.8019 12.9C35.4885 13.0467 35.1319 13.12 34.7319 13.12ZM34.7419 8.96C34.4285 8.96 34.1519 9.05 33.9119 9.23C33.6719 9.40333 33.5185 9.67 33.4519 10.03H35.9219C35.9019 9.70333 35.7819 9.44333 35.5619 9.25C35.3419 9.05667 35.0685 8.96 34.7419 8.96ZM40.5784 13.12C40.1118 13.12 39.6951 13.0067 39.3284 12.78C38.9618 12.5533 38.6718 12.2433 38.4584 11.85C38.2451 11.4567 38.1384 11.01 38.1384 10.51C38.1384 10.01 38.2451 9.56667 38.4584 9.18C38.6718 8.78667 38.9618 8.48 39.3284 8.26C39.6951 8.03333 40.1118 7.92 40.5784 7.92C40.9518 7.92 41.2784 7.99 41.5584 8.13C41.8384 8.27 42.0651 8.46667 42.2384 8.72V5.8H43.5184V13H42.3784L42.2384 12.29C42.0784 12.51 41.8651 12.7033 41.5984 12.87C41.3384 13.0367 40.9984 13.12 40.5784 13.12ZM40.8484 12C41.2618 12 41.5984 11.8633 41.8584 11.59C42.1251 11.31 42.2584 10.9533 42.2584 10.52C42.2584 10.0867 42.1251 9.73333 41.8584 9.46C41.5984 9.18 41.2618 9.04 40.8484 9.04C40.4418 9.04 40.1051 9.17667 39.8384 9.45C39.5718 9.72333 39.4384 10.0767 39.4384 10.51C39.4384 10.9433 39.5718 11.3 39.8384 11.58C40.1051 11.86 40.4418 12 40.8484 12Z" fill="white"/>
<path d="M6.00061 15.5H6.00128C6.31569 15.4996 6.62757 15.4295 6.90801 15.2934C7.18855 15.1572 7.43242 14.9572 7.6108 14.7058C7.6109 14.7056 7.61099 14.7055 7.61109 14.7054L15.8332 3.15749L15.8333 3.15742C15.9712 2.96372 16.0665 2.74414 16.1099 2.51094C16.1533 2.27753 16.1431 2.03913 16.0805 1.81014C16.0179 1.58167 15.9052 1.37001 15.7526 1.18704C15.6003 1.00438 15.4116 0.853942 15.2001 0.740955C14.9881 0.627716 14.7558 0.553812 14.5167 0.520418C14.2771 0.48696 14.0323 0.494648 13.7956 0.54329C13.5591 0.591878 13.3325 0.680839 13.1293 0.807979C12.9262 0.935093 12.7492 1.09872 12.6116 1.29206C12.6116 1.29207 12.6115 1.29208 12.6115 1.29208L6.03727 10.5279L4.02922 7.57317L4.02935 7.57308L4.02211 7.56298C3.74778 7.18013 3.32488 6.92115 2.85673 6.82125C2.38898 6.72143 1.89275 6.78287 1.46946 6.99881C1.04507 7.21531 0.713344 7.57918 0.572168 8.03007C0.429797 8.48478 0.501069 8.9672 0.758775 9.36739L0.758645 9.36747L0.765643 9.37777L4.36883 14.6785L4.36904 14.6788C4.54459 14.9367 4.78817 15.1419 5.06916 15.2826C5.3505 15.4235 5.66476 15.4972 5.98215 15.5V15.5H5.98658H6.00061Z" fill="white" stroke="#5093FE"/>
</svg>
