<svg width="28" height="28" viewBox="0 0 28 28" fill="none" xmlns="http://www.w3.org/2000/svg">
<path d="M13.7995 26C12.9523 25.9987 12.1076 25.9083 11.2795 25.7293C8.95731 25.2091 6.84548 24.0011 5.21887 22.2641C3.59227 20.527 2.52623 18.3412 2.15949 15.9898C1.87474 14.2459 1.97179 12.4602 2.44395 10.7574C2.9161 9.05464 3.75213 7.47562 4.8943 6.12734C5.99051 4.83691 7.35363 3.7988 8.88963 3.08633C10.4256 2.37385 12.0979 2.00344 13.7911 2C14.439 2.00061 15.0859 2.05301 15.7255 2.15703C18.1269 2.55225 20.3413 3.69893 22.0507 5.43125C23.794 7.16302 24.9588 9.391 25.3855 11.8109C25.8657 14.4452 25.4628 17.1646 24.2395 19.5465L25.4155 24.0219C25.4605 24.1887 25.4663 24.3646 25.4326 24.534C25.3989 24.7034 25.3265 24.8624 25.2211 24.9992C25.1207 25.1323 24.9909 25.2399 24.8419 25.3145C24.6928 25.389 24.5285 25.4288 24.3619 25.4293C24.2642 25.4291 24.1669 25.4155 24.0727 25.3895L19.8967 24.2504C18.0658 25.3876 15.9548 25.9934 13.7995 26Z" stroke="currentColor" stroke-width="3"/>
<path d="M10 12H18M10 17H18" stroke="currentColor" stroke-width="3" stroke-linecap="round"/>
</svg>
