<svg width="105" height="16" viewBox="0 0 105 16" fill="none" xmlns="http://www.w3.org/2000/svg">
<rect x="5" width="100" height="16" rx="4" fill="#FF7576"/>
<path d="M13.68 12V5H16.27C16.83 5 17.2933 5.09333 17.66 5.28C18.0267 5.46667 18.3 5.72333 18.48 6.05C18.66 6.37667 18.75 6.74333 18.75 7.15C18.75 7.53667 18.6633 7.89333 18.49 8.22C18.3167 8.54 18.0467 8.8 17.68 9C17.3133 9.19333 16.8433 9.29 16.27 9.29H14.96V12H13.68ZM14.96 8.25H16.19C16.6367 8.25 16.9567 8.15333 17.15 7.96C17.35 7.76 17.45 7.49 17.45 7.15C17.45 6.80333 17.35 6.53333 17.15 6.34C16.9567 6.14 16.6367 6.04 16.19 6.04H14.96V8.25ZM21.1217 12.12C20.6951 12.12 20.3451 12.0533 20.0717 11.92C19.7984 11.78 19.5951 11.5967 19.4617 11.37C19.3284 11.1433 19.2617 10.8933 19.2617 10.62C19.2617 10.16 19.4417 9.78667 19.8017 9.5C20.1617 9.21333 20.7017 9.07 21.4217 9.07H22.6817V8.95C22.6817 8.61 22.5851 8.36 22.3917 8.2C22.1984 8.04 21.9584 7.96 21.6717 7.96C21.4117 7.96 21.1851 8.02333 20.9917 8.15C20.7984 8.27 20.6784 8.45 20.6317 8.69H19.3817C19.4151 8.33 19.5351 8.01667 19.7417 7.75C19.9551 7.48333 20.2284 7.28 20.5617 7.14C20.8951 6.99333 21.2684 6.92 21.6817 6.92C22.3884 6.92 22.9451 7.09667 23.3517 7.45C23.7584 7.80333 23.9617 8.30333 23.9617 8.95V12H22.8717L22.7517 11.2C22.6051 11.4667 22.3984 11.6867 22.1317 11.86C21.8717 12.0333 21.5351 12.12 21.1217 12.12ZM21.4117 11.12C21.7784 11.12 22.0617 11 22.2617 10.76C22.4684 10.52 22.5984 10.2233 22.6517 9.87H21.5617C21.2217 9.87 20.9784 9.93333 20.8317 10.06C20.6851 10.18 20.6117 10.33 20.6117 10.51C20.6117 10.7033 20.6851 10.8533 20.8317 10.96C20.9784 11.0667 21.1717 11.12 21.4117 11.12ZM25.6372 14.2L26.7872 11.67H26.4872L24.5572 7.04H25.9472L27.3372 10.53L28.7872 7.04H30.1472L26.9972 14.2H25.6372ZM30.984 12V7.04H32.114L32.224 7.71C32.384 7.47 32.594 7.28 32.854 7.14C33.1207 6.99333 33.4273 6.92 33.774 6.92C34.5407 6.92 35.084 7.21667 35.404 7.81C35.584 7.53667 35.824 7.32 36.124 7.16C36.4307 7 36.764 6.92 37.124 6.92C37.7707 6.92 38.2673 7.11333 38.614 7.5C38.9607 7.88667 39.134 8.45333 39.134 9.2V12H37.854V9.32C37.854 8.89333 37.7707 8.56667 37.604 8.34C37.444 8.11333 37.194 8 36.854 8C36.5073 8 36.2273 8.12667 36.014 8.38C35.8073 8.63333 35.704 8.98667 35.704 9.44V12H34.424V9.32C34.424 8.89333 34.3407 8.56667 34.174 8.34C34.0073 8.11333 33.7507 8 33.404 8C33.064 8 32.7873 8.12667 32.574 8.38C32.3673 8.63333 32.264 8.98667 32.264 9.44V12H30.984ZM42.7592 12.12C42.2592 12.12 41.8159 12.0133 41.4292 11.8C41.0426 11.5867 40.7392 11.2867 40.5192 10.9C40.2992 10.5133 40.1892 10.0667 40.1892 9.56C40.1892 9.04667 40.2959 8.59 40.5092 8.19C40.7292 7.79 41.0292 7.48 41.4092 7.26C41.7959 7.03333 42.2492 6.92 42.7692 6.92C43.2559 6.92 43.6859 7.02667 44.0592 7.24C44.4326 7.45333 44.7226 7.74667 44.9292 8.12C45.1426 8.48667 45.2492 8.89667 45.2492 9.35C45.2492 9.42333 45.2459 9.5 45.2392 9.58C45.2392 9.66 45.2359 9.74333 45.2292 9.83H41.4592C41.4859 10.2167 41.6192 10.52 41.8592 10.74C42.1059 10.96 42.4026 11.07 42.7492 11.07C43.0092 11.07 43.2259 11.0133 43.3992 10.9C43.5792 10.78 43.7126 10.6267 43.7992 10.44H45.0992C45.0059 10.7533 44.8492 11.04 44.6292 11.3C44.4159 11.5533 44.1492 11.7533 43.8292 11.9C43.5159 12.0467 43.1592 12.12 42.7592 12.12ZM42.7692 7.96C42.4559 7.96 42.1792 8.05 41.9392 8.23C41.6992 8.40333 41.5459 8.67 41.4792 9.03H43.9492C43.9292 8.70333 43.8092 8.44333 43.5892 8.25C43.3692 8.05667 43.0959 7.96 42.7692 7.96ZM46.3258 12V7.04H47.4558L47.5558 7.88C47.7091 7.58667 47.9291 7.35333 48.2158 7.18C48.5091 7.00667 48.8524 6.92 49.2458 6.92C49.8591 6.92 50.3358 7.11333 50.6758 7.5C51.0158 7.88667 51.1858 8.45333 51.1858 9.2V12H49.9058V9.32C49.9058 8.89333 49.8191 8.56667 49.6458 8.34C49.4724 8.11333 49.2024 8 48.8358 8C48.4758 8 48.1791 8.12667 47.9458 8.38C47.7191 8.63333 47.6058 8.98667 47.6058 9.44V12H46.3258ZM54.6198 12C54.0998 12 53.6831 11.8733 53.3698 11.62C53.0564 11.3667 52.8998 10.9167 52.8998 10.27V8.11H52.0498V7.04H52.8998L53.0498 5.71H54.1798V7.04H55.5198V8.11H54.1798V10.28C54.1798 10.52 54.2298 10.6867 54.3298 10.78C54.4364 10.8667 54.6164 10.91 54.8698 10.91H55.4898V12H54.6198ZM58.5816 12L61.1416 5H62.5816L65.1416 12H63.7816L63.2216 10.38H60.4916L59.9216 12H58.5816ZM60.8416 9.38H62.8716L61.8516 6.47L60.8416 9.38ZM68.0633 12.12C67.6233 12.12 67.2366 12.05 66.9033 11.91C66.5699 11.7633 66.3033 11.5633 66.1033 11.31C65.9033 11.0567 65.7833 10.7633 65.7433 10.43H67.0333C67.0733 10.6233 67.1799 10.79 67.3533 10.93C67.5333 11.0633 67.7633 11.13 68.0433 11.13C68.3233 11.13 68.5266 11.0733 68.6533 10.96C68.7866 10.8467 68.8533 10.7167 68.8533 10.57C68.8533 10.3567 68.7599 10.2133 68.5733 10.14C68.3866 10.06 68.1266 9.98333 67.7933 9.91C67.5799 9.86333 67.3633 9.80667 67.1433 9.74C66.9233 9.67333 66.7199 9.59 66.5333 9.49C66.3533 9.38333 66.2066 9.25 66.0933 9.09C65.9799 8.92333 65.9233 8.72 65.9233 8.48C65.9233 8.04 66.0966 7.67 66.4433 7.37C66.7966 7.07 67.2899 6.92 67.9233 6.92C68.5099 6.92 68.9766 7.05667 69.3233 7.33C69.6766 7.60333 69.8866 7.98 69.9533 8.46H68.7433C68.6699 8.09333 68.3933 7.91 67.9133 7.91C67.6733 7.91 67.4866 7.95667 67.3533 8.05C67.2266 8.14333 67.1633 8.26 67.1633 8.4C67.1633 8.54667 67.2599 8.66333 67.4533 8.75C67.6466 8.83667 67.9033 8.91667 68.2233 8.99C68.5699 9.07 68.8866 9.16 69.1733 9.26C69.4666 9.35333 69.6999 9.49667 69.8733 9.69C70.0466 9.87667 70.1333 10.1467 70.1333 10.5C70.1399 10.8067 70.0599 11.0833 69.8933 11.33C69.7266 11.5767 69.4866 11.77 69.1733 11.91C68.8599 12.05 68.4899 12.12 68.0633 12.12ZM73.3172 12.12C72.8772 12.12 72.4905 12.05 72.1572 11.91C71.8239 11.7633 71.5572 11.5633 71.3572 11.31C71.1572 11.0567 71.0372 10.7633 70.9972 10.43H72.2872C72.3272 10.6233 72.4339 10.79 72.6072 10.93C72.7872 11.0633 73.0172 11.13 73.2972 11.13C73.5772 11.13 73.7805 11.0733 73.9072 10.96C74.0405 10.8467 74.1072 10.7167 74.1072 10.57C74.1072 10.3567 74.0139 10.2133 73.8272 10.14C73.6405 10.06 73.3805 9.98333 73.0472 9.91C72.8339 9.86333 72.6172 9.80667 72.3972 9.74C72.1772 9.67333 71.9739 9.59 71.7872 9.49C71.6072 9.38333 71.4605 9.25 71.3472 9.09C71.2339 8.92333 71.1772 8.72 71.1772 8.48C71.1772 8.04 71.3505 7.67 71.6972 7.37C72.0505 7.07 72.5439 6.92 73.1772 6.92C73.7639 6.92 74.2305 7.05667 74.5772 7.33C74.9305 7.60333 75.1405 7.98 75.2072 8.46H73.9972C73.9239 8.09333 73.6472 7.91 73.1672 7.91C72.9272 7.91 72.7405 7.95667 72.6072 8.05C72.4805 8.14333 72.4172 8.26 72.4172 8.4C72.4172 8.54667 72.5139 8.66333 72.7072 8.75C72.9005 8.83667 73.1572 8.91667 73.4772 8.99C73.8239 9.07 74.1405 9.16 74.4272 9.26C74.7205 9.35333 74.9539 9.49667 75.1272 9.69C75.3005 9.87667 75.3872 10.1467 75.3872 10.5C75.3939 10.8067 75.3139 11.0833 75.1472 11.33C74.9805 11.5767 74.7405 11.77 74.4272 11.91C74.1139 12.05 73.7439 12.12 73.3172 12.12ZM81.3011 7.04V12H80.1711L80.0711 11.16C79.9178 11.4533 79.6944 11.6867 79.4011 11.86C79.1144 12.0333 78.7744 12.12 78.3811 12.12C77.7678 12.12 77.2911 11.9267 76.9511 11.54C76.6111 11.1533 76.4411 10.5867 76.4411 9.84V7.04H77.7211V9.72C77.7211 10.1467 77.8078 10.4733 77.9811 10.7C78.1544 10.9267 78.4244 11.04 78.7911 11.04C79.1511 11.04 79.4444 10.9133 79.6711 10.66C79.9044 10.4067 80.0211 10.0533 80.0211 9.6V7.04H81.3011ZM82.6051 12V7.04H83.7451L83.8651 7.97C84.0451 7.65 84.2884 7.39667 84.5951 7.21C84.9084 7.01667 85.2751 6.92 85.6951 6.92V8.27H85.3351C85.0551 8.27 84.8051 8.31333 84.5851 8.4C84.3651 8.48667 84.1917 8.63667 84.0651 8.85C83.9451 9.06333 83.8851 9.36 83.8851 9.74V12H82.6051ZM88.892 12.12C88.392 12.12 87.9487 12.0133 87.562 11.8C87.1754 11.5867 86.872 11.2867 86.652 10.9C86.432 10.5133 86.322 10.0667 86.322 9.56C86.322 9.04667 86.4287 8.59 86.642 8.19C86.862 7.79 87.162 7.48 87.542 7.26C87.9287 7.03333 88.382 6.92 88.902 6.92C89.3887 6.92 89.8187 7.02667 90.192 7.24C90.5654 7.45333 90.8554 7.74667 91.062 8.12C91.2754 8.48667 91.382 8.89667 91.382 9.35C91.382 9.42333 91.3787 9.5 91.372 9.58C91.372 9.66 91.3687 9.74333 91.362 9.83H87.592C87.6187 10.2167 87.752 10.52 87.992 10.74C88.2387 10.96 88.5354 11.07 88.882 11.07C89.142 11.07 89.3587 11.0133 89.532 10.9C89.712 10.78 89.8454 10.6267 89.932 10.44H91.232C91.1387 10.7533 90.982 11.04 90.762 11.3C90.5487 11.5533 90.282 11.7533 89.962 11.9C89.6487 12.0467 89.292 12.12 88.892 12.12ZM88.902 7.96C88.5887 7.96 88.312 8.05 88.072 8.23C87.832 8.40333 87.6787 8.67 87.612 9.03H90.082C90.062 8.70333 89.942 8.44333 89.722 8.25C89.502 8.05667 89.2287 7.96 88.902 7.96ZM94.7386 12.12C94.2719 12.12 93.8553 12.0067 93.4886 11.78C93.1219 11.5533 92.8319 11.2433 92.6186 10.85C92.4053 10.4567 92.2986 10.01 92.2986 9.51C92.2986 9.01 92.4053 8.56667 92.6186 8.18C92.8319 7.78667 93.1219 7.48 93.4886 7.26C93.8553 7.03333 94.2719 6.92 94.7386 6.92C95.1119 6.92 95.4386 6.99 95.7186 7.13C95.9986 7.27 96.2253 7.46667 96.3986 7.72V4.8H97.6786V12H96.5386L96.3986 11.29C96.2386 11.51 96.0253 11.7033 95.7586 11.87C95.4986 12.0367 95.1586 12.12 94.7386 12.12ZM95.0086 11C95.4219 11 95.7586 10.8633 96.0186 10.59C96.2853 10.31 96.4186 9.95333 96.4186 9.52C96.4186 9.08667 96.2853 8.73333 96.0186 8.46C95.7586 8.18 95.4219 8.04 95.0086 8.04C94.6019 8.04 94.2653 8.17667 93.9986 8.45C93.7319 8.72333 93.5986 9.07667 93.5986 9.51C93.5986 9.94333 93.7319 10.3 93.9986 10.58C94.2653 10.86 94.6019 11 95.0086 11Z" fill="white"/>
<path d="M0.5 2.77338C0.5 3.13096 0.714513 3.43845 1.02187 3.57419C0.714513 3.70992 0.5 4.01742 0.5 4.375V5.625C0.5 6.10824 0.891764 6.5 1.375 6.5H5.64641C5.54836 6.67975 5.42211 6.82905 5.27273 6.94853C4.98149 7.18145 4.56282 7.33225 4 7.33225H1.375C0.891765 7.33225 0.5 7.72401 0.5 8.20725V9.86388C0.5 10.1081 0.602095 10.3412 0.781491 10.5068L0.781516 10.5068L5.93939 15.268L5.93942 15.268C6.10104 15.4172 6.31292 15.5 6.53286 15.5H6.53287H9.11294C9.90953 15.5 10.2917 14.5223 9.70643 13.982L9.70642 13.982L5.77677 10.3547C7.68814 9.90974 9.05798 8.47367 9.41049 6.5H10.625C11.1082 6.5 11.5 6.10824 11.5 5.625V4.375C11.5 3.89176 11.1082 3.5 10.625 3.5C11.1082 3.5 11.5 3.10824 11.5 2.625V1.375C11.5 0.891763 11.1082 0.5 10.625 0.5H1.375C0.891764 0.5 0.5 0.891764 0.5 1.375V2.77338Z" fill="white" stroke="#FF7576"/>
</svg>
