<svg width="20" height="18" viewBox="0 0 20 18" fill="none" xmlns="http://www.w3.org/2000/svg">
<path d="M13.6886 0H6.31136L4.48041 3.32884C4.11825 3.35949 3.75818 3.39081 3.40031 3.42183C1.87002 3.55447 0.610303 4.73786 0.3861 6.26299C0.182988 7.64465 0 9.06762 0 10.5209C0 11.9742 0.182989 13.3972 0.386101 14.7788C0.610304 16.304 1.87002 17.4873 3.40031 17.62C5.5959 17.8103 7.79444 18 10 18C12.2056 18 14.4041 17.8103 16.5997 17.62C18.13 17.4873 19.3897 16.304 19.6139 14.7788C19.817 13.3972 20 11.9742 20 10.5209C20 9.06762 19.817 7.64465 19.6139 6.26299C19.3897 4.73786 18.13 3.55447 16.5997 3.42183C16.2397 3.39062 15.8797 3.35931 15.5196 3.32884L13.6886 0Z" fill="currentColor"/>
<path d="M10 13.6601C11.9882 13.6601 13.6 12.0424 13.6 10.0469C13.6 8.05131 11.9882 6.43359 10 6.43359C8.0118 6.43359 6.40002 8.05131 6.40002 10.0469C6.40002 12.0424 8.0118 13.6601 10 13.6601Z" fill="currentColor" stroke="white" stroke-width="1.5" stroke-linecap="round" stroke-linejoin="round"/>
</svg>
