<svg width="20" height="20" viewBox="0 0 20 20" fill="none" xmlns="http://www.w3.org/2000/svg">
<path fill-rule="evenodd" clip-rule="evenodd" d="M2 10C2 5.58172 5.58172 2 10 2C14.4183 2 18 5.58172 18 10C18 14.4183 14.4183 18 10 18C5.58172 18 2 14.4183 2 10ZM10 0C4.47715 0 0 4.47715 0 10C0 15.5228 4.47715 20 10 20C15.5228 20 20 15.5228 20 10C20 4.47715 15.5228 0 10 0ZM6.39418 11.1169C6.24637 10.5847 5.69516 10.2732 5.16302 10.421C4.63088 10.5688 4.31933 11.12 4.46715 11.6522C5.31097 14.6899 8.64112 16.5075 11.6522 15.6711C11.6772 15.6642 11.7019 15.6563 11.7263 15.6474C13.5171 14.9962 15.0231 13.5206 15.5339 11.6476C15.6792 11.1148 15.3651 10.5651 14.8322 10.4198C14.2994 10.2744 13.7497 10.5886 13.6044 11.1214C13.2875 12.2831 12.3173 13.2914 11.0797 13.7542C9.11563 14.2768 6.93158 13.0515 6.39418 11.1169ZM13.6534 8.92293C12.9172 8.91449 12.323 8.31507 12.323 7.57687C12.323 6.83341 12.9257 6.23071 13.6692 6.23071L13.6534 8.92293ZM13.6534 8.92293L13.6847 6.23083C14.4209 6.2392 15.0152 6.83865 15.0152 7.5769C15.0152 8.32035 14.4125 8.92305 13.669 8.92305L13.6534 8.92293ZM6.34572 6.23083C7.08218 6.23897 7.67668 6.83851 7.67668 7.5769C7.67668 8.32035 7.07399 8.92305 6.33053 8.92305M6.31521 8.92293C5.5788 8.91472 4.98438 8.31521 4.98438 7.57687C4.98438 6.83341 5.58707 6.23071 6.33053 6.23071" fill="currentColor"/>
</svg>
