<svg width="18" height="18" viewBox="0 0 18 18" fill="none" xmlns="http://www.w3.org/2000/svg">
<path d="M0.793672 0.0574577L17.6928 8.49958C17.9654 8.63577 18.0775 8.97023 17.9432 9.24662C17.8896 9.35689 17.8016 9.44613 17.6928 9.50047L0.79402 17.9424C0.521397 18.0786 0.191493 17.965 0.0571572 17.6886C-0.00158393 17.5677 -0.0152007 17.4294 0.0188222 17.2991L1.69311 10.8892C1.74848 10.6772 1.92121 10.5178 2.13457 10.4817L9.70775 9.20157C9.80053 9.18589 9.87724 9.1238 9.91411 9.03939L9.93392 8.97227C9.95534 8.84202 9.884 8.71782 9.76879 8.66904L9.70775 8.65126L2.09181 7.36441C1.87837 7.32834 1.70559 7.16881 1.65027 6.95672L0.0184406 0.700599C-0.0592954 0.402728 0.115869 0.0973683 0.409682 0.0185586C0.538114 -0.0158908 0.674503 -0.00207427 0.793672 0.0574577Z" fill="currentColor"/>
</svg>
