<svg width="24" height="24" viewBox="0 0 24 24" fill="none" xmlns="http://www.w3.org/2000/svg">
<path d="M6.8202 1.38929C6.08204 0.827403 5.0351 0.920775 4.42518 1.61977C3.7754 2.36445 3.59617 2.77758 2.55251 4.08537C0.725977 6.37416 0.738786 9.69849 2.59311 11.9933C3.962 13.6874 5.39701 15.397 6.99998 17C8.60295 18.603 10.3126 20.038 12.0066 21.4069C14.3015 23.2612 17.6258 23.274 19.9146 21.4475C21.239 20.3905 21.6345 20.2317 22.3994 19.5593C23.0724 18.9677 23.1869 17.964 22.6594 17.2397C21.5105 15.6622 20.0477 14.2091 18.7255 12.798C18.3439 12.3908 17.7064 12.3673 17.2823 12.7301C16.6903 13.2365 16.6681 13.1687 15.6384 14.1335C13.0062 12.5629 11.4084 10.9458 9.86642 8.36159C10.8345 7.32848 10.7663 7.30621 11.2771 6.70959C11.6397 6.2861 11.6167 5.6495 11.208 5.27031C9.79834 3.96229 8.35915 2.56073 6.8202 1.38929Z" stroke="currentColor" stroke-width="2" stroke-linejoin="round"/>
</svg>
