<svg width="24" height="24" viewBox="0 0 24 24" fill="none" xmlns="http://www.w3.org/2000/svg">
<path d="M6.76825 2.53115C8.43178 1.52978 10.3344 1.00061 12.2735 1C13.8869 0.999045 15.4797 1.36406 16.9331 2.06783C18.3866 2.7716 19.6632 3.79598 20.6678 5.0646C21.6725 6.33323 22.3793 7.81337 22.7355 9.39471C23.0917 10.9761 23.0881 12.6178 22.725 14.1976C22.362 15.7773 21.6488 17.2544 20.6386 18.5186C19.6285 19.7828 18.3474 20.8015 16.8909 21.4989C15.4345 22.1963 13.8401 22.5544 12.2268 22.5463C10.8803 22.5396 9.54947 22.2781 8.30337 21.7779L1.81972 22.8628C1.44794 22.925 1.14364 22.5691 1.26286 22.2115L2.96398 17.1091C2.12904 15.6373 1.64947 13.9851 1.56891 12.286C1.47662 10.3394 1.91143 8.40422 2.82703 6.6864C3.74263 4.96859 5.10473 3.53252 6.76825 2.53115Z" stroke="currentColor" stroke-width="2" stroke-linecap="round" stroke-linejoin="round"/>
<path d="M8.15039 9.34717H16.7304" stroke="currentColor" stroke-width="2" stroke-linecap="round" stroke-linejoin="round"/>
<path d="M8.15039 14.6533H14.6404" stroke="currentColor" stroke-width="2" stroke-linecap="round" stroke-linejoin="round"/>
</svg>
