<svg width="20" height="18" viewBox="0 0 20 18" fill="none" xmlns="http://www.w3.org/2000/svg">
<path d="M2 18.001C1.47022 17.9989 0.962752 17.7877 0.588135 17.4131C0.213518 17.0385 0.00210652 16.5308 0 16.001V4.00098C0.00184486 3.47111 0.213095 2.96354 0.587769 2.58887C0.962442 2.21419 1.47013 2.00282 2 2.00098H5.17004L6.401 0.651367C6.58997 0.447303 6.8189 0.283857 7.07349 0.171875C7.32807 0.0598928 7.60286 0.00139381 7.88098 0H12.121C12.3976 0.000436041 12.6711 0.0588077 12.9241 0.170898C13.177 0.282989 13.4038 0.446703 13.59 0.651367L14.832 2.00098H18.002C18.5318 2.00282 19.0395 2.21419 19.4142 2.58887C19.7889 2.96354 20.0001 3.47111 20.002 4.00098V16.001C19.9998 16.5308 19.7886 17.0385 19.4139 17.4131C19.0393 17.7877 18.5317 17.9989 18.002 18.001H2ZM5 10.001C5 11.3271 5.5268 12.5985 6.46448 13.5361C7.40216 14.4738 8.67392 15.001 10 15.001C11.3261 15.001 12.5978 14.4738 13.5355 13.5361C14.4732 12.5985 15 11.3271 15 10.001C15 8.67489 14.4732 7.4035 13.5355 6.46582C12.5978 5.52814 11.3261 5.00098 10 5.00098C8.67392 5.00098 7.40216 5.52814 6.46448 6.46582C5.5268 7.4035 5 8.67489 5 10.001ZM7 10.001C7 9.20533 7.31605 8.44249 7.87866 7.87988C8.44127 7.31727 9.20435 7.00098 10 7.00098C10.7956 7.00098 11.5587 7.31727 12.1213 7.87988C12.6839 8.44249 13 9.20533 13 10.001C13 10.7966 12.6839 11.5595 12.1213 12.1221C11.5587 12.6847 10.7956 13.001 10 13.001C9.20435 13.001 8.44127 12.6847 7.87866 12.1221C7.31605 11.5595 7 10.7966 7 10.001Z" fill="currentColor"/>
</svg>
