<svg width="20" height="20" viewBox="0 0 20 20" fill="none" xmlns="http://www.w3.org/2000/svg">
<path d="M18.749 10.0001L19.853 8.09206C19.9857 7.8625 20.0218 7.58964 19.9533 7.33349C19.8849 7.07733 19.7175 6.85884 19.488 6.72606L17.578 5.62206V3.42206C17.578 3.15684 17.4727 2.90249 17.2851 2.71495C17.0976 2.52741 16.8432 2.42206 16.578 2.42206H14.379L13.276 0.513058C13.1428 0.283974 12.9247 0.116563 12.669 0.0470575C12.5422 0.0126734 12.4098 0.00380726 12.2795 0.020973C12.1492 0.0381388 12.0236 0.0809952 11.91 0.147058L10 1.25106L8.09001 0.146057C7.86033 0.0134551 7.58739 -0.0224795 7.33121 0.0461584C7.07504 0.114796 6.85662 0.282385 6.72401 0.512058L5.62001 2.42206H3.42101C3.15579 2.42206 2.90144 2.52741 2.7139 2.71495C2.52637 2.90249 2.42101 3.15684 2.42101 3.42206V5.62106L0.511011 6.72506C0.397043 6.79061 0.297151 6.87804 0.217075 6.98232C0.136999 7.0866 0.0783168 7.20567 0.0443997 7.3327C0.0104825 7.45972 0.0019991 7.5922 0.0194368 7.72252C0.0368745 7.85283 0.0798894 7.97842 0.146011 8.09206L1.25001 10.0001L0.146011 11.9081C0.0139994 12.1378 -0.0218174 12.4105 0.046369 12.6666C0.114555 12.9226 0.281215 13.1414 0.510011 13.2751L2.42001 14.3791V16.5781C2.42001 16.8433 2.52537 17.0976 2.7129 17.2852C2.90044 17.4727 3.15479 17.5781 3.42001 17.5781H5.62001L6.72401 19.4881C6.81254 19.6394 6.93895 19.7651 7.09079 19.8528C7.24263 19.9404 7.41468 19.9871 7.59001 19.9881C7.76401 19.9881 7.93701 19.9421 8.09101 19.8531L9.99901 18.7491L11.909 19.8531C12.1386 19.9855 12.4114 20.0214 12.6675 19.953C12.9236 19.8846 13.142 19.7174 13.275 19.4881L14.378 17.5781H16.577C16.8422 17.5781 17.0966 17.4727 17.2841 17.2852C17.4717 17.0976 17.577 16.8433 17.577 16.5781V14.3791L19.487 13.2751C19.6008 13.2093 19.7005 13.1218 19.7804 13.0175C19.8603 12.9132 19.9189 12.7942 19.9528 12.6672C19.9867 12.5402 19.9953 12.4079 19.978 12.2776C19.9607 12.1473 19.9179 12.0218 19.852 11.9081L18.749 10.0001ZM7.49901 4.99006C7.89697 4.99019 8.27857 5.14841 8.55988 5.4299C8.84118 5.71139 8.99914 6.0931 8.99901 6.49106C8.99888 6.88902 8.84066 7.27062 8.55917 7.55193C8.27768 7.83323 7.89597 7.99119 7.49801 7.99106C7.10005 7.99093 6.71845 7.83271 6.43714 7.55122C6.15584 7.26973 5.99788 6.88801 5.99801 6.49006C5.99814 6.0921 6.15636 5.71049 6.43785 5.42919C6.71934 5.14789 7.10105 4.98992 7.49901 4.99006ZM7.79901 14.5901L6.19901 13.3911L12.199 5.39106L13.799 6.59006L7.79901 14.5901ZM12.499 14.9901C12.302 14.99 12.1069 14.9511 11.9248 14.8756C11.7428 14.8002 11.5774 14.6896 11.4381 14.5502C11.2989 14.4108 11.1884 14.2454 11.113 14.0633C11.0377 13.8812 10.9989 13.6861 10.999 13.4891C10.9991 13.292 11.038 13.0969 11.1134 12.9149C11.1889 12.7329 11.2995 12.5675 11.4389 12.4282C11.5782 12.2889 11.7437 12.1784 11.9258 12.1031C12.1078 12.0277 12.303 11.989 12.5 11.9891C12.898 11.9892 13.2796 12.1474 13.5609 12.4289C13.8422 12.7104 14.0001 13.0921 14 13.4901C13.9999 13.888 13.8417 14.2696 13.5602 14.5509C13.2787 14.8322 12.897 14.9902 12.499 14.9901Z" fill="currentColor"/>
</svg>
