<svg width="512" height="512" viewBox="0 0 512 512" fill="none" xmlns="http://www.w3.org/2000/svg">
<path d="M441.387 249.6C438.827 244.053 380.373 112 256 112C244.092 111.988 232.216 113.275 220.587 115.84C216.755 117.026 213.511 119.607 211.492 123.072C209.474 126.537 208.83 130.633 209.689 134.55C210.547 138.467 212.845 141.919 216.128 144.222C219.411 146.525 223.437 147.512 227.413 146.987C236.815 145.022 246.394 144.021 256 144C345.173 144 396.373 231.467 408.96 256C401.287 270.993 392.29 285.272 382.08 298.667C380.245 301.028 379.111 303.857 378.803 306.831C378.494 309.805 379.025 312.804 380.335 315.492C381.647 318.18 383.682 320.446 386.217 322.035C388.749 323.625 391.676 324.472 394.667 324.48C397.097 324.472 399.492 323.91 401.675 322.84C403.855 321.766 405.762 320.213 407.253 318.293C420.689 301.231 432.141 282.692 441.387 263.04C442.321 260.924 442.803 258.635 442.803 256.32C442.803 254.005 442.321 251.716 441.387 249.6Z" fill="black"/>
<path d="M139.306 116.694C136.273 113.867 132.261 112.329 128.116 112.402C123.971 112.475 120.017 114.154 117.085 117.086C114.154 120.017 112.474 123.972 112.401 128.117C112.328 132.262 113.867 136.274 116.693 139.307L136.32 158.934C108.528 184.5 86.1804 215.409 70.613 249.813C69.774 251.806 69.3418 253.945 69.3418 256.106C69.3418 258.27 69.774 260.409 70.613 262.4C73.173 267.946 131.626 400 256 400C289.265 400.164 321.841 390.519 349.653 372.266L372.693 395.306C375.693 398.304 379.759 399.987 384 399.987C388.239 399.987 392.307 398.304 395.307 395.306C398.302 392.307 399.985 388.241 399.985 384C399.985 379.761 398.302 375.695 395.307 372.693L139.306 116.694ZM221.013 244.693L268.16 292.053C261.553 294.244 254.475 294.607 247.678 293.105C240.881 291.603 234.615 288.292 229.547 283.52C224.384 278.43 220.823 271.94 219.309 264.851C217.792 257.762 218.385 250.383 221.013 243.626V244.693ZM256 368C166.613 368 115.626 280.32 103.04 256C116.964 227.974 135.908 202.74 158.933 181.547L197.12 219.733C188.924 232.979 185.443 248.606 187.24 264.079C189.038 279.552 196.009 293.962 207.023 304.977C218.037 315.991 232.45 322.963 247.921 324.759C263.394 326.558 279.021 323.076 292.267 314.88L326.613 349.226C305.178 361.685 280.793 368.168 256 368Z" fill="black"/>
</svg>
