<svg width="512" height="512" viewBox="0 0 512 512" fill="none" xmlns="http://www.w3.org/2000/svg">
<path d="M256 400C131.627 400 73.1735 267.947 70.6135 262.4C69.7685 260.371 69.3335 258.197 69.3335 256C69.3335 253.803 69.7685 251.629 70.6135 249.6C73.1735 244.053 131.627 112 256 112C380.373 112 438.827 244.053 441.387 249.6C442.232 251.629 442.667 253.803 442.667 256C442.667 258.197 442.232 260.371 441.387 262.4C438.827 267.947 380.373 400 256 400ZM103.04 256C115.627 280.533 167.04 368 256 368C344.96 368 396.373 280.533 408.96 256C396.373 231.467 344.96 144 256 144C167.04 144 115.627 231.467 103.04 256Z" fill="black"/>
<path d="M256 325.333C242.287 325.333 228.883 321.267 217.48 313.649C206.079 306.031 197.192 295.202 191.944 282.532C186.697 269.864 185.324 255.923 187.999 242.474C190.674 229.024 197.277 216.67 206.974 206.974C216.67 197.277 229.024 190.674 242.474 187.999C255.923 185.324 269.864 186.697 282.532 191.944C295.202 197.192 306.031 206.079 313.649 217.48C321.267 228.883 325.333 242.287 325.333 256C325.278 274.37 317.954 291.974 304.964 304.964C291.974 317.954 274.37 325.278 256 325.333ZM256 218.666C248.616 218.666 241.397 220.855 235.26 224.958C229.12 229.06 224.335 234.89 221.508 241.713C218.684 248.535 217.943 256.04 219.383 263.283C220.825 270.526 224.38 277.177 229.602 282.398C234.822 287.62 241.474 291.176 248.717 292.616C255.959 294.056 263.464 293.316 270.287 290.492C277.109 287.665 282.94 282.88 287.042 276.74C291.144 270.602 293.333 263.383 293.333 256C293.278 246.116 289.327 236.653 282.336 229.664C275.347 222.673 265.884 218.722 256 218.666Z" fill="black"/>
</svg>
