<svg width="34" height="33" viewBox="0 0 34 33" fill="none" xmlns="http://www.w3.org/2000/svg">
<path d="M17.687 23.636L24.7034 30.2691C25.4042 30.9316 26.5599 30.4819 26.6286 29.52C27.1421 22.3312 27.1146 15.1199 26.599 7.93436C26.5245 6.89685 25.6566 6.09961 24.6164 6.09961H9.38359C8.34341 6.09961 7.47548 6.89686 7.40103 7.93436C6.88538 15.1199 6.85793 22.3312 7.37142 29.52C7.44013 30.4819 8.59585 30.9316 9.29663 30.2691L16.313 23.636C16.6985 23.2716 17.3015 23.2716 17.687 23.636Z" fill="white" stroke="black" stroke-width="3" stroke-linecap="round" stroke-linejoin="round"/>
<path d="M28.7 2C30.5225 2 32 3.47746 32 5.3C32 7.12254 30.5225 8.6 28.7 8.6L5.3 8.6C3.47746 8.6 2 7.12254 2 5.3C2 3.47746 3.47746 2 5.3 2L28.7 2Z" fill="currentColor" stroke="black" stroke-width="3" stroke-linejoin="round"/>
</svg>
