<svg width="34" height="38" viewBox="0 0 34 38" fill="none" xmlns="http://www.w3.org/2000/svg">
<path d="M2.72345 30.1455C2.98217 32.7573 5.04134 34.8662 7.65034 35.2084C10.6746 35.6052 13.8008 36 17 36C20.1992 36 23.3254 35.6052 26.3497 35.2084C28.9587 34.8662 31.0178 32.7573 31.2765 30.1455C31.6329 26.5482 32 22.8202 32 19C32 16.7538 31.8731 14.5395 31.6961 12.3649C31.2702 7.13318 27.0783 2.76193 21.8398 2.2565C20.2481 2.10293 18.6336 2 17 2C13.8008 2 10.6746 2.39478 7.65035 2.79155C5.04134 3.13385 2.98217 5.24275 2.72345 7.8545C2.3671 11.4518 2 15.1798 2 19C2 22.8202 2.3671 26.5482 2.72345 30.1455Z" fill="white" stroke="black" stroke-width="3"/>
<path d="M19.8526 7.43999V13.3811H26.5457C29.5225 13.3811 31.9423 15.7594 31.9992 18.7147C31.989 16.5662 31.8654 14.4474 31.6959 12.3649C31.2701 7.13318 27.0781 2.76193 21.8396 2.2565C20.248 2.10293 18.6334 2 16.9999 2C16.3619 2 15.7269 2.0157 15.095 2.04398C17.7783 2.38528 19.8526 4.67105 19.8526 7.43999Z" fill="currentColor" stroke="black" stroke-width="3" stroke-linejoin="round"/>
<path d="M10.1819 26.48H20.5796" stroke="black" stroke-width="3" stroke-linecap="round"/>
<path d="M10.1819 18.32H16.4564" stroke="black" stroke-width="3" stroke-linecap="round"/>
</svg>
