<svg width="34" height="38" viewBox="0 0 34 38" fill="none" xmlns="http://www.w3.org/2000/svg">
<path d="M3.01522 35.1261C3.09835 35.6234 3.52107 36 4.02529 36H29.9747C30.4789 36 30.9013 35.6232 30.9859 35.1261C31.3965 32.7141 32 31.922 32 25.9774C32 20.0328 31.3965 19.2407 30.9859 16.8287C30.9013 16.3316 30.4789 15.9548 29.9747 15.9548L4.02529 15.9548C3.52107 15.9548 3.09835 16.3314 3.01522 16.8287C2.60466 19.285 2 20.2582 2 25.9774C2 31.6966 2.60466 32.6698 3.01522 35.1261Z" fill="white" stroke="black" stroke-width="3"/>
<path d="M7.36426 21.4185L8.82485 21.3983" stroke="black" stroke-width="3" stroke-linecap="round" stroke-linejoin="round"/>
<path d="M25.4392 30.4869L26.8998 30.4667" stroke="black" stroke-width="3" stroke-linecap="round" stroke-linejoin="round"/>
<path d="M10 6.31825V9.55694" stroke="currentColor" stroke-width="3" stroke-linecap="round" stroke-linejoin="round"/>
<path d="M17 2L17 9.55693" stroke="currentColor" stroke-width="3" stroke-linecap="round" stroke-linejoin="round"/>
<path d="M24 6.31825V9.55694" stroke="currentColor" stroke-width="3" stroke-linecap="round" stroke-linejoin="round"/>
<path d="M17 32L17 20" stroke="black" stroke-width="2" stroke-linecap="round" stroke-linejoin="round"/>
<path d="M20.4696 23.375C20.4696 22.0909 19.3514 21 17 21C14.6486 21 13.5304 22.0274 13.5304 23.375C13.5304 24.4252 14.6486 25.4333 17 25.75C19.3514 26.0667 21 26.7975 21 28.38C21 29.8042 19.3514 31 17 31C14.6486 31 13 29.9818 13 28.625" stroke="black" stroke-width="2" stroke-linecap="round"/>
</svg>
