<svg width="34" height="38" viewBox="0 0 34 38" fill="none" xmlns="http://www.w3.org/2000/svg">
<path d="M6.41959 28.4395C9.8238 28.7002 13.3647 29 17 29C20.6353 29 24.1762 28.7002 27.5804 28.4395C29.4842 28.2937 31.0617 26.8489 31.3757 24.9655C31.645 23.35 31.9003 21.6914 31.9768 19.9997C32.0018 19.448 31.5523 19 31 19H3C2.44772 19 1.99819 19.448 2.02315 19.9997C2.09968 21.6914 2.35503 23.35 2.62434 24.9655C2.9383 26.8489 4.51582 28.2937 6.41959 28.4395Z" fill="white" stroke="black" stroke-width="3" stroke-linejoin="round"/>
<path d="M32 36H30.8462C29.6221 36 28.4481 35.5786 27.5826 34.8284C26.717 34.0783 26.2308 33.0609 26.2308 32C26.2308 33.0609 25.7445 34.0783 24.879 34.8284C24.0134 35.5786 22.8395 36 21.6154 36C20.3913 36 19.2174 35.5786 18.3518 34.8284C17.4863 34.0783 17 33.0609 17 32C17 33.0609 16.5137 34.0783 15.6482 34.8284C14.7826 35.5786 13.6087 36 12.3846 36C11.1605 36 9.9866 35.5786 9.12105 34.8284C8.25549 34.0783 7.76923 33.0609 7.76923 32C7.76923 33.0609 7.28297 34.0783 6.41742 34.8284C5.55186 35.5786 4.37792 36 3.15385 36H2" stroke="black" stroke-width="3" stroke-linecap="round" stroke-linejoin="round"/>
<path d="M26 19H8C8.03949 16.3998 8.23847 13.8589 8.43114 11.3988C8.4505 11.1515 8.4698 10.9051 8.48887 10.6595C8.60744 9.13216 9.51817 7.90981 10.6702 7.71995C10.8364 7.69254 11.0032 7.66482 11.1706 7.63701C13.0533 7.32406 15.0029 7 17 7C18.9971 7 20.9467 7.32406 22.8294 7.63701C22.9968 7.66482 23.1636 7.69254 23.3298 7.71995C24.4818 7.90981 25.3926 9.13216 25.5111 10.6595C25.5302 10.9051 25.5495 11.1515 25.5689 11.3988C25.7615 13.859 25.9605 16.3998 26 19Z" fill="currentColor" stroke="black" stroke-width="3" stroke-linejoin="round"/>
<path d="M13 12L13 14" stroke="white" stroke-width="2" stroke-linecap="round" stroke-linejoin="round"/>
<path d="M17 12L17 14" stroke="white" stroke-width="2" stroke-linecap="round" stroke-linejoin="round"/>
<path d="M21 12L21 14" stroke="white" stroke-width="2" stroke-linecap="round" stroke-linejoin="round"/>
<path d="M19 2L16.9999 6.60618" stroke="black" stroke-width="3" stroke-linecap="round" stroke-linejoin="round"/>
</svg>
