<svg width="34" height="38" viewBox="0 0 34 38" fill="none" xmlns="http://www.w3.org/2000/svg">
<path d="M29.9919 21.9384C34.1391 24.0081 31.3387 28 26.3559 28H7.64408C2.66129 28 -0.139071 24.0081 4.00808 21.9384C7.72798 20.0819 12.1954 19 17 19C21.8046 19 26.272 20.0819 29.9919 21.9384Z" stroke="black" stroke-width="3"/>
<path d="M16.5009 15.0018C20.0912 15.0018 23.0018 12.0912 23.0018 8.50089C23.0018 4.91055 20.0912 2 16.5009 2C12.9105 2 10 4.91055 10 8.50089C10 12.0912 12.9105 15.0018 16.5009 15.0018Z" stroke="black" stroke-width="3" stroke-linecap="round" stroke-linejoin="round"/>
<path d="M15.2886 24.914H18.7115L20.8139 31.9036C20.9272 32.2802 20.8092 32.6882 20.5124 32.9463L17.6562 35.4296C17.2799 35.7567 16.7202 35.7567 16.3439 35.4296L13.4876 32.9463C13.1908 32.6883 13.0728 32.2802 13.1861 31.9036L15.2886 24.914Z" fill="currentColor" stroke="black" stroke-width="3" stroke-linejoin="round"/>
<path d="M15.8522 24.8126C16.6971 24.9496 17.3274 24.946 18.1476 24.8126C18.4983 24.7556 18.7837 24.5016 18.883 24.1605C19.1702 23.1738 19.412 21.9986 19.5701 21.1493C19.6824 20.5463 19.2158 20 18.6025 20L15.3978 20C14.7845 20 14.3179 20.5463 14.4302 21.1492C14.5884 21.9987 14.8302 23.1743 15.1175 24.1611C15.2167 24.5019 15.5018 24.7558 15.8522 24.8126Z" fill="white" stroke="black" stroke-width="3" stroke-linejoin="round"/>
</svg>
