<svg width="34" height="36" viewBox="0 0 34 36" fill="none" xmlns="http://www.w3.org/2000/svg">
<path d="M22.7017 23.1376C25.7687 25.1798 23.6977 29.1185 20.0126 29.1185H6.17413C2.48907 29.1185 0.418031 25.1798 3.48509 23.1376C6.23618 21.3058 9.54008 20.2383 13.0934 20.2383C16.6467 20.2383 19.9506 21.3058 22.7017 23.1376Z" fill="white"/>
<path d="M12.0974 20.2344C8.95977 20.505 6.04864 21.5677 3.56503 23.2214C0.332879 25.3735 2.51539 29.5242 6.39881 29.5242H12.0974" stroke="black" stroke-width="3" stroke-linecap="round"/>
<path d="M16.7535 25.8612C16.7535 21.3197 18.0241 19.3734 18.6593 18.7246H30.0942C30.7294 19.3734 32 21.3197 32 25.8612C32 31.0515 26.9945 32.9658 24.4534 33.6146C21.9123 32.9658 16.7535 31.0515 16.7535 25.8612Z" fill="currentColor" stroke="black" stroke-width="3" stroke-linecap="round" stroke-linejoin="round"/>
<path d="M13.6947 15.2117C17.3441 15.2117 20.3024 12.2541 20.3024 8.60583C20.3024 4.95753 17.3441 2 13.6947 2C10.0454 2 7.08704 4.95753 7.08704 8.60583C7.08704 12.2541 10.0454 15.2117 13.6947 15.2117Z" fill="white" stroke="black" stroke-width="3" stroke-linecap="round" stroke-linejoin="round"/>
</svg>
