<svg width="200" height="146" viewBox="0 0 200 146" fill="none" xmlns="http://www.w3.org/2000/svg">
<path fill-rule="evenodd" clip-rule="evenodd" d="M13.1338 143.203L12.8993 143.736C12.4305 144.803 11.4075 145.464 10.2992 145.506C10.214 145.506 10.1287 145.506 10.0435 145.506C8.95657 145.421 7.9762 144.781 7.50732 143.736L7.27289 143.203L0.239836 127.057C-0.399532 125.564 0.282451 123.794 1.77431 123.133C3.28748 122.472 5.05641 123.176 5.69578 124.669L10.214 135.013L14.4551 125.244L14.7109 124.669C15.2011 123.581 16.2667 122.898 17.4175 122.898C18.5471 122.898 19.6127 123.581 20.1029 124.669L20.3586 125.244L24.5998 135.013L29.118 124.669C29.7787 123.176 31.5263 122.472 33.0395 123.133C34.5313 123.794 35.2346 125.564 34.5739 127.057L27.5409 143.203L27.3065 143.736C26.8589 144.781 25.8572 145.421 24.7916 145.506C24.6921 145.506 24.5998 145.506 24.5145 145.506C23.4063 145.464 22.3833 144.803 21.9144 143.736L21.68 143.203L17.4175 133.392L13.1338 143.203ZM107.441 113.236C109.082 113.236 110.424 114.58 110.424 116.201V142.542C110.424 144.184 109.082 145.528 107.441 145.528C105.821 145.528 104.478 144.184 104.478 142.542V116.201C104.478 114.58 105.821 113.236 107.441 113.236ZM200 142.542C200 144.184 198.657 145.528 197.016 145.528C195.887 145.528 194.906 144.888 194.395 143.971C192.711 144.952 190.75 145.528 188.662 145.528C182.396 145.528 177.345 140.452 177.345 134.181C177.345 127.932 182.396 122.856 188.662 122.856C190.75 122.856 192.711 123.41 194.395 124.413C194.906 123.474 195.887 122.856 197.016 122.856C198.657 122.856 200 124.199 200 125.82V142.542ZM188.662 128.806C185.699 128.806 183.291 131.216 183.291 134.202C183.291 137.167 185.699 139.577 188.662 139.577C191.624 139.577 194.033 137.167 194.033 134.202C194.033 131.216 191.624 128.806 188.662 128.806ZM170.44 122.856C172.081 122.856 173.424 124.199 173.424 125.842V142.542C173.424 144.184 172.081 145.528 170.44 145.528C168.82 145.528 167.477 144.184 167.477 142.542V125.842C167.477 124.199 168.82 122.856 170.44 122.856ZM162.426 142.542C162.426 144.184 161.084 145.528 159.464 145.528C158.334 145.528 157.354 144.888 156.843 143.971C155.159 144.952 153.198 145.528 151.11 145.528C144.844 145.528 139.771 140.452 139.771 134.202C139.771 127.932 144.844 122.856 151.11 122.856C153.049 122.856 154.882 123.346 156.48 124.221V116.222C156.48 114.58 157.823 113.236 159.464 113.236C161.084 113.236 162.426 114.58 162.426 116.222V142.542ZM151.11 128.785C148.126 128.785 145.718 131.195 145.718 134.181C145.718 137.146 148.126 139.556 151.11 139.556C154.072 139.556 156.48 137.146 156.48 134.181C156.48 131.195 154.072 128.785 151.11 128.785ZM131.843 142.542V134.181C131.843 131.195 129.435 128.785 126.451 128.785C123.489 128.785 121.081 131.195 121.081 134.181V142.542C121.081 143.054 120.953 143.523 120.718 143.95C120.207 144.888 119.226 145.506 118.097 145.506C116.477 145.506 115.134 144.163 115.134 142.542V125.82C115.134 124.178 116.477 122.834 118.097 122.834C119.226 122.834 120.207 123.474 120.718 124.391C122.402 123.41 124.363 122.834 126.451 122.834C128.561 122.834 130.522 123.41 132.206 124.391C135.552 126.375 137.789 130.001 137.789 134.181V142.542C137.789 144.163 136.447 145.506 134.806 145.506C133.697 145.506 132.696 144.888 132.206 143.95C131.971 143.523 131.843 143.054 131.843 142.542ZM41.2873 122.834C41.472 122.834 41.6496 122.849 41.8201 122.877C43.2054 123.133 44.271 124.349 44.271 125.82V142.542C44.271 143.992 43.2054 145.229 41.7988 145.464C41.6283 145.492 41.4578 145.506 41.2873 145.506C39.6463 145.506 38.3036 144.163 38.3036 142.542V125.82C38.3036 124.178 39.6463 122.834 41.2873 122.834ZM79.9478 122.834C86.2136 122.834 91.286 127.91 91.286 134.181C91.286 140.43 86.2136 145.506 79.9478 145.506C73.7033 145.506 68.631 140.43 68.631 134.181C68.631 127.91 73.7033 122.834 79.9478 122.834ZM85.3398 134.181C85.3398 131.195 82.9315 128.785 79.9478 128.785C76.9854 128.785 74.5771 131.195 74.5771 134.181C74.5771 137.146 76.9854 139.556 79.9478 139.556C82.9315 139.556 85.3398 137.146 85.3398 134.181ZM54.9272 130.086L61.1504 123.837C62.3012 122.685 64.198 122.685 65.3489 123.837C66.5211 125.01 66.5211 126.887 65.3489 128.06L59.2323 134.181L65.3489 140.324C66.5211 141.475 66.5211 143.374 65.3489 144.547C64.198 145.698 62.3012 145.698 61.1504 144.547L54.9272 138.297V142.542C54.9272 144.163 53.5845 145.506 51.9435 145.506C50.8565 145.506 49.8975 144.931 49.386 144.035C49.1089 143.608 48.9597 143.075 48.9597 142.542V116.201C48.9597 114.559 50.3024 113.215 51.9435 113.215C53.5845 113.215 54.9272 114.559 54.9272 116.201V130.086Z" fill="#1A1A1A"/>
<path d="M181.978 33.1495C185.866 37.0081 185.866 43.3515 181.978 47.2394L139.678 89.5095C135.82 93.3974 129.476 93.3974 125.588 89.5095C121.73 85.6508 121.73 79.3074 125.588 75.4195L167.888 33.1495C171.775 29.2615 178.09 29.2615 181.978 33.1495Z" fill="#1A1A1A"/>
<path d="M26.9286 33.1495C30.8165 29.2616 37.1307 29.2616 41.0186 33.1495L76.2729 68.3745L139.707 4.94027C143.566 1.0816 149.909 1.0816 153.797 4.94027C157.656 8.82818 157.656 15.1716 153.797 19.0303L83.3179 89.5095C79.43 93.3974 73.0865 93.3974 69.2279 89.5095H69.1986L26.9286 47.2395C23.0407 43.3516 23.0407 37.0082 26.9286 33.1495Z" fill="#FF8C00"/>
<path d="M55.1088 2.89401C58.9968 -0.964669 65.3402 -0.964669 69.1989 2.89401L83.3181 16.984C87.1768 20.8719 87.1768 27.2153 83.3181 31.1033C79.4302 34.9619 73.0868 34.9619 69.2281 31.1033L55.1088 16.984C51.2502 13.1253 51.2502 6.78191 55.1088 2.89401Z" fill="#1A1A1A"/>
</svg>
