<svg width="10" height="14" viewBox="0 0 10 14" fill="none" xmlns="http://www.w3.org/2000/svg">
<path d="M5.2 1C4.08609 1 3.0178 1.4425 2.23015 2.23015C1.4425 3.0178 1 4.08609 1 5.2C1 8.35 5.2 13 5.2 13C5.2 13 9.4 8.35 9.4 5.2C9.4 4.08609 8.9575 3.0178 8.16985 2.23015C7.3822 1.4425 6.31391 1 5.2 1ZM5.2 6.7C4.90333 6.7 4.61332 6.61203 4.36664 6.4472C4.11997 6.28238 3.92771 6.04811 3.81418 5.77402C3.70065 5.49994 3.67094 5.19834 3.72882 4.90736C3.7867 4.61639 3.92956 4.34912 4.13934 4.13934C4.34912 3.92956 4.61639 3.7867 4.90736 3.72882C5.19834 3.67094 5.49994 3.70065 5.77402 3.81418C6.04811 3.92771 6.28238 4.11997 6.4472 4.36664C6.61203 4.61332 6.7 4.90333 6.7 5.2C6.7 5.59782 6.54196 5.97936 6.26066 6.26066C5.97936 6.54196 5.59782 6.7 5.2 6.7Z" stroke="black"/>
</svg>
