<svg width="95" height="74" viewBox="0 0 95 74" fill="none" xmlns="http://www.w3.org/2000/svg">
<path d="M30.0491 72.1685L2.26028 44.397C1.20565 43.3407 0.613281 41.909 0.613281 40.4163C0.613281 38.9236 1.20565 37.492 2.26028 36.4356L5.6364 33.0552C6.69272 32.0006 8.12437 31.4083 9.61704 31.4083C11.1097 31.4083 12.5414 32.0006 13.5977 33.0552L33.798 53.2424L81.371 2.68771C82.3947 1.60156 83.8075 0.965971 85.2993 0.920469C86.7911 0.874966 88.2401 1.42327 89.328 2.44501L92.7951 5.71709C93.8826 6.74091 94.519 8.15464 94.5645 9.64753C94.61 11.1404 94.0609 12.5903 93.0378 13.6784L38.1449 72.0428C37.628 72.5937 37.0057 73.035 36.3149 73.3405C35.6241 73.646 34.8789 73.8094 34.1236 73.8212C33.3684 73.8329 32.6185 73.6926 31.9185 73.4087C31.2185 73.1248 30.5828 72.703 30.0491 72.1685Z" fill="white"/>
</svg>
