<svg width="34" height="37" viewBox="0 0 34 37" fill="none" xmlns="http://www.w3.org/2000/svg">
<ellipse cx="17" cy="18.5" rx="5" ry="4.5" fill="currentColor"/>
<path d="M29.6973 20.606C29.6153 20.5023 29.5708 20.3739 29.5713 20.2418V16.4412C29.5708 16.309 29.6153 16.1806 29.6973 16.077L31.4505 13.8803C31.766 13.4854 31.955 13.0046 31.9929 12.5007C32.0308 11.9967 31.9158 11.4931 31.663 11.0555L30.6405 9.28597C30.3883 8.84802 30.0099 8.49633 29.5546 8.27684C29.0994 8.05736 28.5886 7.98028 28.0889 8.05569L25.3108 8.47823C25.1795 8.49667 25.0457 8.47123 24.9303 8.40586L21.6386 6.50558C21.5227 6.43588 21.4338 6.32888 21.3865 6.2021L20.3617 3.5968C20.1782 3.12681 19.8572 2.72305 19.4408 2.4382C19.0244 2.15335 18.5317 2.00064 18.0272 2H15.9775C15.4729 2.00064 14.9803 2.15335 14.5639 2.4382C14.1474 2.72305 13.8265 3.12681 13.643 3.5968L12.6135 6.2021C12.5644 6.32542 12.4757 6.42891 12.3614 6.49624L9.06271 8.40586C8.94735 8.47139 8.81354 8.49684 8.68218 8.47823L5.91113 8.05569C5.41142 7.98028 4.90058 8.05736 4.44537 8.27684C3.99015 8.49633 3.61172 8.84802 3.35953 9.28597L2.33702 11.0555C2.08416 11.4931 1.96918 11.9967 2.00708 12.5007C2.04498 13.0046 2.234 13.4854 2.54946 13.8803L4.30266 16.077C4.38471 16.1806 4.42915 16.309 4.42873 16.4412V20.2418C4.42915 20.3739 4.38471 20.5023 4.30266 20.606L2.54946 22.8027C2.234 23.1975 2.04498 23.6783 2.00708 24.1823C1.96918 24.6862 2.08416 25.1899 2.33702 25.6275L3.35953 27.397C3.61172 27.835 3.99015 28.1866 4.44537 28.4061C4.90058 28.6256 5.41142 28.7027 5.91113 28.6273L8.68919 28.2047C8.82054 28.1861 8.95436 28.2116 9.06971 28.2771L12.3614 30.1774C12.4757 30.2447 12.5644 30.3482 12.6135 30.4715L13.6383 33.0862C13.8218 33.5562 14.1428 33.9599 14.5592 34.2448C14.9756 34.5296 15.4683 34.6823 15.9728 34.683H18.0178C18.5224 34.6823 19.015 34.5296 19.4315 34.2448C19.8479 33.9599 20.1688 33.5562 20.3523 33.0862L21.3772 30.4715C21.4262 30.3482 21.5149 30.2447 21.6293 30.1774L24.921 28.2771C25.0364 28.2117 25.1701 28.1863 25.3015 28.2047L28.0795 28.6273C28.5792 28.7027 29.0901 28.6256 29.5453 28.4061C30.0005 28.1866 30.3789 27.835 30.6311 27.397L31.6536 25.6275C31.9065 25.1899 32.0215 24.6862 31.9836 24.1823C31.9457 23.6783 31.7567 23.1975 31.4412 22.8027L29.6973 20.606ZM17 23.5941C15.9611 23.5941 14.9456 23.286 14.0818 22.7089C13.218 22.1317 12.5448 21.3114 12.1472 20.3516C11.7497 19.3918 11.6456 18.3357 11.8483 17.3168C12.051 16.2978 12.5512 15.3619 13.2858 14.6273C14.0204 13.8927 14.9564 13.3925 15.9753 13.1898C16.9942 12.9871 18.0503 13.0911 19.0101 13.4887C19.9699 13.8863 20.7902 14.5595 21.3674 15.4233C21.9446 16.2871 22.2526 17.3026 22.2526 18.3415C22.2526 19.7346 21.6992 21.0706 20.7142 22.0557C19.7291 23.0407 18.3931 23.5941 17 23.5941Z" fill="white" stroke="black" stroke-width="3"/>
</svg>
