<svg width="200" height="200" viewBox="0 0 200 200" fill="none" xmlns="http://www.w3.org/2000/svg">
<path d="M192.961 99.9958C196.05 96.399 198.215 92.1028 199.267 87.48C200.32 82.8573 200.228 78.0475 199.001 73.468C197.774 68.8885 195.448 64.6776 192.225 61.2006C189.002 57.7235 184.979 55.0854 180.506 53.5149C181.382 48.8554 181.109 44.0524 179.709 39.5226C178.309 34.9927 175.824 30.8729 172.472 27.5205C169.119 24.1682 164.999 21.6845 160.469 20.285C155.939 18.8856 151.136 18.6125 146.476 19.4896C144.907 15.0152 142.269 10.9914 138.792 7.76759C135.315 4.54379 131.104 2.21744 126.524 0.990518C121.943 -0.236406 117.133 -0.326819 112.51 0.72713C107.887 1.78108 103.591 3.94753 99.9953 7.03839C96.3985 3.94966 92.1023 1.78516 87.4796 0.732665C82.8568 -0.319827 78.047 -0.228524 73.4675 0.998652C68.888 2.22583 64.6771 4.55181 61.2001 7.77483C57.723 10.9978 55.0849 15.0205 53.5145 19.494C48.8552 18.6183 44.0527 18.8925 39.5234 20.293C34.9942 21.6934 30.875 24.1777 27.5232 27.5303C24.1714 30.883 21.6881 35.0028 20.2889 39.5324C18.8896 44.062 18.6166 48.8646 19.4935 53.5236C15.02 55.094 10.9973 57.7322 7.77431 61.2092C4.5513 64.6863 2.2253 68.8972 0.998125 73.4767C-0.229051 78.0562 -0.320368 82.866 0.732124 87.4887C1.78462 92.1115 3.94916 96.4076 7.03789 100.004C3.94822 103.601 1.78301 107.898 0.73022 112.521C-0.322572 117.144 -0.231175 121.955 0.996538 126.534C2.22425 131.114 4.55115 135.325 7.77527 138.802C10.9994 142.279 15.0233 144.916 19.4978 146.485C18.6202 151.145 18.8929 155.947 20.2923 160.477C21.6918 165.007 24.1756 169.127 27.5283 172.479C30.881 175.831 35.0011 178.315 39.5311 179.714C44.0611 181.112 48.8641 181.385 53.5231 180.506C55.0935 184.98 57.7317 189.003 61.2087 192.226C64.6858 195.449 68.8967 197.775 73.4762 199.002C78.0557 200.229 82.8654 200.32 87.4882 199.268C92.111 198.215 96.4072 196.051 100.004 192.962C103.601 196.052 107.897 198.217 112.521 199.27C117.144 200.322 121.954 200.231 126.534 199.003C131.114 197.776 135.325 195.449 138.802 192.225C142.278 189 144.916 184.976 146.485 180.502C151.144 181.379 155.947 181.107 160.477 179.707C165.007 178.308 169.127 175.824 172.479 172.471C175.832 169.119 178.316 164.999 179.715 160.469C181.115 155.939 181.388 151.136 180.51 146.477C184.984 144.907 189.007 142.269 192.23 138.791C195.453 135.314 197.779 131.103 199.006 126.523C200.233 121.943 200.324 117.133 199.27 112.511C198.217 107.888 196.051 103.592 192.961 99.9958Z" fill="#408BFC"/>
</svg>
