<svg width="20" height="26" viewBox="0 0 20 26" fill="none" xmlns="http://www.w3.org/2000/svg">
<path d="M18.3904 23.4428L11.374 16.8097C10.603 16.0808 9.39702 16.0808 8.62603 16.8097L1.60965 23.4428C1.57951 23.4713 1.55631 23.4789 1.53938 23.4819C1.51806 23.4856 1.48979 23.4839 1.45962 23.4722C1.42945 23.4604 1.40751 23.4425 1.39429 23.4254C1.38379 23.4118 1.37183 23.3905 1.36888 23.3492C0.858958 16.2103 0.886047 9.0468 1.39846 1.90633C1.43485 1.39926 1.8606 1 2.38359 1H17.6164C18.1394 1 18.5651 1.39926 18.6015 1.90633C19.114 9.0468 19.141 16.2103 18.6311 23.3492C18.6282 23.3905 18.6162 23.4118 18.6057 23.4254C18.5925 23.4425 18.5706 23.4604 18.5404 23.4722C18.5102 23.4839 18.4819 23.4856 18.4606 23.4819C18.4437 23.4789 18.4205 23.4713 18.3904 23.4428Z" fill="currentColor" stroke="currentColor" stroke-width="2" stroke-linecap="round" stroke-linejoin="round"/>
</svg>
