<svg width="32" height="20" viewBox="0 0 32 20" fill="none" xmlns="http://www.w3.org/2000/svg">
<path d="M4.39861 18.4901C2.94674 18.3625 1.76063 17.2269 1.5465 15.7641C1.2739 13.9019 1 11.9742 1 10C1 8.02579 1.2739 6.0981 1.5465 4.23591C1.76063 2.77314 2.94674 1.6375 4.39861 1.50994C4.64607 1.48819 4.89446 1.46613 5.14375 1.44398C7.59892 1.22587 10.1413 1 12.7456 1C15.3498 1 17.8923 1.22587 20.3474 1.44398C20.5967 1.46613 20.8451 1.48819 21.0926 1.50994C22.5444 1.6375 23.7305 2.77314 23.9447 4.23591C24.0607 5.02867 24.177 5.83329 24.2723 6.64832C27.1633 5.33708 31 3.6225 31 3.6225V16.3777C31 16.3777 27.1632 14.6631 24.2723 13.3519C24.177 14.1669 24.0607 14.9714 23.9447 15.7641C23.7305 17.2269 22.5444 18.3625 21.0926 18.4901C20.8451 18.5118 20.5967 18.5339 20.3474 18.556C17.8923 18.7741 15.3498 19 12.7456 19C10.1414 19 7.59894 18.7741 5.14378 18.556C4.89448 18.5339 4.64608 18.5118 4.39861 18.4901Z" fill="currentColor" stroke="currentColor" stroke-width="1" stroke-linejoin="round"/>
</svg>
