<svg width="34" height="36" viewBox="0 0 34 36" fill="none" xmlns="http://www.w3.org/2000/svg">
<path d="M19.458 2.36804L5.90918 10.5459L27.1623 12.4135L23.101 3.49572C22.4681 2.10615 20.7652 1.57901 19.458 2.36804Z" fill="currentColor" stroke="black" stroke-width="3" stroke-linecap="round" stroke-linejoin="round"/>
<path d="M2.63096 28.1344C3.05866 30.5632 5.00103 32.5148 7.43929 32.8847C9.86035 33.2521 12.0466 33.6127 15.4043 33.6127C18.762 33.6127 20.9482 33.2521 23.3692 32.8848C25.8075 32.5148 27.7499 30.5632 28.1775 28.1344C28.5075 26.2604 28.8085 24.6331 28.8085 21.4851C28.8085 18.3371 28.5075 16.7097 28.1775 14.8358C27.7499 12.407 25.8075 10.4553 23.3692 10.0854C20.9482 9.7181 18.762 9.35742 15.4043 9.35742C12.0466 9.35742 9.86035 9.7181 7.43929 10.0854C5.00103 10.4553 3.05866 12.407 2.63096 14.8358C2.30097 16.7097 2 18.3371 2 21.4851C2 24.6331 2.30097 26.2604 2.63096 28.1344Z" fill="white" stroke="black" stroke-width="3"/>
<path d="M17.9568 22.9389V19.7793C17.9568 18.5367 18.9641 17.5293 20.2068 17.5293H30.9993C31.5516 17.5293 31.9993 17.977 31.9993 18.5293V24.1889C31.9993 24.7412 31.5516 25.1889 30.9993 25.1889H20.2068C18.9641 25.1889 17.9568 24.1815 17.9568 22.9389Z" fill="white" stroke="black" stroke-width="3" stroke-linecap="round"/>
</svg>
